<svg xmlns="http://www.w3.org/2000/svg" fill-rule="evenodd" stroke-linejoin="round" stroke-miterlimit="2" clip-rule="evenodd" viewBox="0 0 128 128" id="House">
  <rect width="128" height="128" fill="none"></rect>
  <g transform="matrix(1.29689 0 0 1.33333 -148.4 0)" fill="#f6db40" class="color000000 svgShape">
    <path d="M692.542,138.341C692.542,143.087 694.486,147.074 697.057,147.598C709.02,150.038 718.128,170.398 718.128,194.735C718.128,196.676 718.071,198.589 717.958,200.47C716.883,218.057 718.835,235.845 723.543,251.318C726.61,261.44 728.344,273.303 728.344,285.96C728.344,321.349 714.754,350.723 697.217,353.274C694.577,353.657 692.542,357.7 692.542,362.559L692.542,500.042C692.542,505.186 694.814,509.356 697.618,509.356L939.424,509.356C942.227,509.356 944.5,505.186 944.5,500.042L944.5,100.695C944.5,95.551 942.227,91.381 939.424,91.381L697.618,91.381C694.814,91.381 692.542,95.551 692.542,100.695L692.542,138.341ZM702.693,130.625L702.693,110.009C702.693,110.009 934.348,110.009 934.348,110.009C934.348,110.009 934.348,490.728 934.348,490.728C934.348,490.728 702.693,490.728 702.693,490.728C702.693,490.728 702.693,370.662 702.693,370.662C723.001,363.318 738.496,328.283 738.496,285.96C738.496,269.993 736.285,255.039 732.411,242.252C732.41,242.248 732.408,242.243 732.407,242.238C728.732,230.158 727.207,216.271 728.048,202.523C728.048,202.515 728.049,202.507 728.049,202.499C728.201,199.953 728.28,197.362 728.28,194.735C728.28,163.613 717.325,137.676 702.693,130.625Z" transform="matrix(.12153 0 0 .06442 35.558 46.516)" fill="#f6db40" class="color000000 svgShape"></path>
    <path d="M648.836,187.599C648.836,184.818 646.564,182.563 643.761,182.563L505.642,182.563C504.234,182.563 502.889,183.143 501.929,184.165L398.241,294.561C397.365,295.493 396.878,296.72 396.878,297.995L396.878,337.563C396.878,340.345 399.151,342.6 401.954,342.6L643.761,342.6C646.564,342.6 648.836,340.345 648.836,337.563L648.836,187.599ZM638.685,192.636L638.685,332.527C638.685,332.527 407.03,332.527 407.03,332.527C407.03,332.527 407.03,299.978 407.03,299.978C407.03,299.978 507.85,192.636 507.85,192.636L638.685,192.636Z" transform="matrix(.12153 0 0 .11913 71.49 12.789)" fill="#f6db40" class="color000000 svgShape"></path>
    <path d="M529.187,377.662C529.187,375.942 526.646,374.548 523.51,374.548L442.374,374.548C439.238,374.548 436.696,375.942 436.696,377.662L436.696,462.961C436.696,464.681 439.238,466.075 442.374,466.075L523.51,466.075C526.646,466.075 529.187,464.681 529.187,462.961L529.187,377.662ZM517.833,380.776L517.833,459.847C517.833,459.847 448.051,459.847 448.051,459.847C448.051,459.847 448.051,380.776 448.051,380.776L517.833,380.776Z" transform="matrix(.10866 0 0 .19268 88.058 -10.478)" fill="#f6db40" class="color000000 svgShape"></path>
    <path d="M531.08,377.662C531.08,374.366 527.691,371.694 523.51,371.694L442.374,371.694C438.193,371.694 434.804,374.366 434.804,377.662L434.804,462.961C434.804,466.257 438.193,468.93 442.374,468.93L523.51,468.93C527.691,468.93 531.08,466.257 531.08,462.961L531.08,377.662ZM515.941,383.63L515.941,456.993C515.941,456.993 449.943,456.993 449.943,456.993C449.943,456.993 449.943,383.63 449.943,383.63L515.941,383.63Z" transform="matrix(.0815 0 0 .10053 90.525 24.325)" fill="#f6db40" class="color000000 svgShape"></path>
    <path d="M529.187,377.662C529.187,374.366 526.646,371.694 523.51,371.694L442.374,371.694C439.238,371.694 436.696,374.366 436.696,377.662L436.696,462.961C436.696,466.257 439.238,468.93 442.374,468.93L523.51,468.93C526.646,468.93 529.187,466.257 529.187,462.961L529.187,377.662ZM517.833,383.63L517.833,456.993C517.833,456.993 448.051,456.993 448.051,456.993C448.051,456.993 448.051,383.63 448.051,383.63L517.833,383.63Z" transform="matrix(.10866 0 0 .10053 109.877 -1.4)" fill="#f6db40" class="color000000 svgShape"></path>
    <path d="M529.187,377.662C529.187,374.366 526.646,371.694 523.51,371.694L442.374,371.694C439.238,371.694 436.696,374.366 436.696,377.662L436.696,462.961C436.696,466.257 439.238,468.93 442.374,468.93L523.51,468.93C526.646,468.93 529.187,466.257 529.187,462.961L529.187,377.662ZM517.833,383.63L517.833,456.993C517.833,456.993 448.051,456.993 448.051,456.993C448.051,456.993 448.051,383.63 448.051,383.63L517.833,383.63Z" transform="matrix(.10866 0 0 .10053 141.582 -1.4)" fill="#f6db40" class="color000000 svgShape"></path>
    <path d="M648.375,237.726C648.375,214.579 646.309,195.814 643.761,195.814L401.954,195.814C399.406,195.814 397.34,214.579 397.34,237.726L397.34,437.4C397.34,460.548 399.406,479.313 401.954,479.313L643.761,479.313C646.309,479.313 648.375,460.548 648.375,437.4L648.375,237.726ZM639.146,279.64L639.146,395.488C639.146,395.487 406.568,395.487 406.568,395.487C406.568,395.487 406.568,279.639 406.568,279.639L639.146,279.64Z" transform="matrix(.13368 0 0 .01432 63.667 43.882)" fill="#f6db40" class="color000000 svgShape"></path>
    <path d="M648.375,237.726C648.375,214.579 646.309,195.814 643.761,195.814L401.954,195.814C399.406,195.814 397.34,214.579 397.34,237.726L397.34,437.4C397.34,460.548 399.406,479.313 401.954,479.313L643.761,479.313C646.309,479.313 648.375,460.548 648.375,437.4L648.375,237.726ZM639.146,279.64L639.146,395.488C639.146,395.487 406.568,395.487 406.568,395.487C406.568,395.487 406.568,279.639 406.568,279.639L639.146,279.64Z" transform="matrix(.13368 0 0 .01432 95.993 44.597)" fill="#f6db40" class="color000000 svgShape"></path>
    <path d="M648.684,237.726C648.684,214.579 646.479,195.814 643.761,195.814L401.954,195.814C399.235,195.814 397.031,214.579 397.031,237.726L397.031,437.4C397.031,460.548 399.235,479.313 401.954,479.313L643.761,479.313C646.479,479.313 648.684,460.548 648.684,437.4L648.684,237.726ZM638.838,279.639L638.838,395.488C638.838,395.487 406.877,395.487 406.877,395.487C406.877,395.487 406.877,279.639 406.877,279.639C406.877,279.639 638.838,279.639 638.838,279.639Z" transform="matrix(.1253 0 0 .01432 131.687 44.597)" fill="#f6db40" class="color000000 svgShape"></path>
    <path d="M916.723,535.779C916.723,533.858 914.377,532.301 911.483,532.301L368.517,532.301C365.623,532.301 363.277,533.858 363.277,535.779L363.277,552.346C363.277,554.267 365.623,555.824 368.517,555.824L911.483,555.824C914.377,555.824 916.723,554.267 916.723,552.346L916.723,535.779ZM906.243,539.256L906.243,548.869C906.243,548.869 373.757,548.869 373.757,548.869C373.757,548.869 373.757,539.256 373.757,539.256L906.243,539.256Z" transform="matrix(.11772 0 0 .17253 71.817 -13.711)" fill="#f6db40" class="color000000 svgShape"></path>
    <path d="M921.56,535.779C921.56,533.858 917.048,532.301 911.483,532.301L368.517,532.301C362.952,532.301 358.44,533.858 358.44,535.779L358.44,552.346C358.44,554.267 362.952,555.824 368.517,555.824L911.483,555.824C917.048,555.824 921.56,554.267 921.56,552.346L921.56,535.779ZM901.406,539.256L901.406,548.869C901.406,548.869 378.594,548.869 378.594,548.869C378.594,548.869 378.594,539.256 378.594,539.256L901.406,539.256Z" transform="matrix(.06122 0 0 .17253 156.556 -13.711)" fill="#f6db40" class="color000000 svgShape"></path>
    <path d="M890.643,131.982C890.643,129.297 888.37,127.121 885.567,127.121L643.761,127.121C640.957,127.121 638.685,129.297 638.685,131.982L638.685,288.295C638.685,290.979 640.957,293.155 643.761,293.155L885.567,293.155C888.37,293.155 890.643,290.979 890.643,288.295L890.643,131.982ZM880.492,136.843L880.492,283.434C880.491,283.434 648.836,283.434 648.836,283.434C648.836,283.434 648.836,136.843 648.836,136.843L880.492,136.843Z" transform="matrix(.12153 0 0 .12343 71.49 12.415)" fill="#f6db40" class="color000000 svgShape"></path>
    <path d="M890.643 131.982C890.643 129.297 888.37 127.121 885.567 127.121L643.761 127.121C640.957 127.121 638.685 129.297 638.685 131.982L638.685 288.295C638.685 290.979 640.957 293.155 643.761 293.155L885.567 293.155C888.37 293.155 890.643 290.979 890.643 288.295L890.643 131.982zM880.492 136.843L880.492 283.434C880.491 283.434 648.836 283.434 648.836 283.434 648.836 283.434 648.836 136.843 648.836 136.843L880.492 136.843zM521.171 19.979L521.168 19.978 521.171 19.979C521.958 20.588 522.94 20.976 524.013 21.043L524.644 21.28C523.683 21.28 522.743 21.019 521.931 20.527L638.685 91.239C638.685 91.239 638.685 108.824 638.685 108.824 638.685 111.509 640.957 113.685 643.761 113.685L885.567 113.685C888.37 113.685 890.643 111.509 890.643 108.824L890.643 88.562C890.643 86.895 889.751 85.344 888.28 84.453L768.794 12.086C767.982 11.595 767.041 11.334 766.081 11.334L524.355 11.334C521.552 11.334 519.28 13.51 519.28 16.195 519.28 17.724 520.017 19.089 521.171 19.979zM541.796 21.056L764.61 21.056C764.611 21.056 880.491 91.239 880.491 91.239 880.492 91.239 880.492 103.964 880.492 103.964 880.491 103.964 648.836 103.964 648.836 103.964 648.836 103.964 648.836 88.562 648.836 88.562 648.836 86.895 647.945 85.344 646.474 84.453L541.796 21.056zM526.165 21.056C525.682 21.202 525.17 21.28 524.644 21.28L524.76 21.056 526.165 21.056z" transform="matrix(.12153 0 0 .12343 100.878 12.415)" fill="#f6db40" class="color000000 svgShape"></path>
    <path d="M856.311,285.056L673.017,285.056L673.017,202.832C673.017,202.832 855.634,202.832 855.634,202.832C857.507,202.832 859.228,202.174 860.11,201.12C864.451,195.938 866.201,190.033 865.182,184.183C865.117,183.539 865.056,182.85 865.056,182.153C865.056,173.692 874.165,166.614 886.128,165.766C888.698,165.583 890.643,164.197 890.643,162.547L890.643,137.89C890.643,136.101 888.37,134.652 885.567,134.652L643.761,134.652C640.957,134.652 638.685,136.101 638.685,137.89L638.685,288.295C638.685,290.083 640.957,291.533 643.761,291.533L885.567,291.533C888.37,291.533 890.643,290.083 890.643,288.295L890.643,240.498C890.643,238.809 888.608,237.403 885.968,237.27C877.831,236.858 870.523,234.42 865.134,230.656C863.721,229.67 861.503,229.338 859.55,229.821C857.598,230.305 856.311,231.504 856.311,232.84L856.311,285.056ZM662.866,285.056L648.836,285.056C648.836,285.056 648.836,141.128 648.836,141.128C648.836,141.128 880.492,141.128 880.492,141.128C880.492,141.128 880.492,159.865 880.492,159.865C865.86,162.316 854.905,171.333 854.905,182.153C854.905,183.021 854.977,183.877 855.067,184.723C855.072,184.77 855.079,184.818 855.087,184.865C855.78,188.792 854.874,192.752 852.448,196.355C852.447,196.356 667.941,196.356 667.941,196.356C665.138,196.356 662.866,197.806 662.866,199.594L662.866,285.056ZM866.462,285.056L866.462,239.745L866.465,239.746C870.725,241.461 875.457,242.684 880.492,243.316C880.492,243.316 880.492,285.056 880.492,285.056L866.462,285.056Z" transform="matrix(.12153 0 0 .1853 71.49 25.308)" fill="#f6db40" class="color000000 svgShape"></path>
    <path d="M127.719,294.758L127.719,290.758C127.719,290.295 127.342,289.919 126.879,289.919C126.416,289.919 126.039,290.295 126.039,290.758L126.039,294.758C126.039,295.222 126.416,295.598 126.879,295.598C127.342,295.598 127.719,295.222 127.719,294.758Z" transform="matrix(.73468 0 0 .7146 39.972 -151.201)" fill="#f6db40" class="color000000 svgShape"></path>
    <path d="M127.719,294.758L127.719,290.758C127.719,290.295 127.342,289.919 126.879,289.919C126.416,289.919 126.039,290.295 126.039,290.758L126.039,294.758C126.039,295.222 126.416,295.598 126.879,295.598C127.342,295.598 127.719,295.222 127.719,294.758Z" transform="matrix(.73468 0 0 .7146 45.85 -151.201)" fill="#f6db40" class="color000000 svgShape"></path>
    <path d="M127.719,294.758L127.719,290.758C127.719,290.295 127.342,289.919 126.879,289.919C126.416,289.919 126.039,290.295 126.039,290.758L126.039,294.758C126.039,295.222 126.416,295.598 126.879,295.598C127.342,295.598 127.719,295.222 127.719,294.758Z" transform="matrix(.73468 0 0 .7146 67.667 -151.201)" fill="#f6db40" class="color000000 svgShape"></path>
    <path d="M127.719,294.758L127.719,290.758C127.719,290.14 127.342,289.639 126.879,289.639C126.416,289.639 126.039,290.14 126.039,290.758L126.039,294.758C126.039,295.376 126.416,295.878 126.879,295.878C127.342,295.878 127.719,295.376 127.719,294.758Z" transform="matrix(.73468 0 0 .53595 67.667 -124.268)" fill="#f6db40" class="color000000 svgShape"></path>
    <path d="M127.719,294.758L127.719,290.758C127.719,290.14 127.342,289.639 126.879,289.639C126.416,289.639 126.039,290.14 126.039,290.758L126.039,294.758C126.039,295.376 126.416,295.878 126.879,295.878C127.342,295.878 127.719,295.376 127.719,294.758Z" transform="matrix(.73468 0 0 .53595 99.373 -124.268)" fill="#f6db40" class="color000000 svgShape"></path>
    <path d="M127.719,294.758L127.719,290.758C127.719,290.295 127.342,289.919 126.879,289.919C126.416,289.919 126.039,290.295 126.039,290.758L126.039,294.758C126.039,295.222 126.416,295.598 126.879,295.598C127.342,295.598 127.719,295.222 127.719,294.758Z" transform="matrix(.73468 0 0 .7146 51.727 -151.201)" fill="#f6db40" class="color000000 svgShape"></path>
    <path d="M127.719,294.758L127.719,290.758C127.719,290.295 127.342,289.919 126.879,289.919C126.416,289.919 126.039,290.295 126.039,290.758L126.039,294.758C126.039,295.222 126.416,295.598 126.879,295.598C127.342,295.598 127.719,295.222 127.719,294.758Z" transform="matrix(.73468 0 0 .7146 73.545 -151.201)" fill="#f6db40" class="color000000 svgShape"></path>
    <path d="M127.719,294.758L127.719,290.758C127.719,290.14 127.342,289.639 126.879,289.639C126.416,289.639 126.039,290.14 126.039,290.758L126.039,294.758C126.039,295.376 126.416,295.878 126.879,295.878C127.342,295.878 127.719,295.376 127.719,294.758Z" transform="matrix(.73468 0 0 .53595 73.545 -124.268)" fill="#f6db40" class="color000000 svgShape"></path>
    <path d="M127.719,294.758L127.719,290.758C127.719,290.14 127.342,289.639 126.879,289.639C126.416,289.639 126.039,290.14 126.039,290.758L126.039,294.758C126.039,295.376 126.416,295.878 126.879,295.878C127.342,295.878 127.719,295.376 127.719,294.758Z" transform="matrix(.73468 0 0 .53595 105.25 -124.268)" fill="#f6db40" class="color000000 svgShape"></path>
    <path d="M127.719,294.758L127.719,290.758C127.719,290.295 127.342,289.919 126.879,289.919C126.416,289.919 126.039,290.295 126.039,290.758L126.039,294.758C126.039,295.222 126.416,295.598 126.879,295.598C127.342,295.598 127.719,295.222 127.719,294.758Z" transform="matrix(.73468 0 0 .7146 33.36 -151.201)" fill="#f6db40" class="color000000 svgShape"></path>
    <path d="M127.719,294.758L127.719,290.758C127.719,290.295 127.342,289.919 126.879,289.919C126.416,289.919 126.039,290.295 126.039,290.758L126.039,294.758C126.039,295.222 126.416,295.598 126.879,295.598C127.342,295.598 127.719,295.222 127.719,294.758Z" transform="matrix(.73468 0 0 .7146 36.666 -151.201)" fill="#f6db40" class="color000000 svgShape"></path>
    <path d="M127.719,294.758L127.719,290.758C127.719,290.604 127.342,290.478 126.879,290.478C126.416,290.478 126.039,290.604 126.039,290.758L126.039,294.758C126.039,294.913 126.416,295.038 126.879,295.038C127.342,295.038 127.719,294.913 127.719,294.758Z" transform="matrix(.73468 0 0 2.1438 36.666 -561.036)" fill="#f6db40" class="color000000 svgShape"></path>
    <path d="M127.719,294.758L127.719,290.758C127.719,290.295 127.342,289.919 126.879,289.919C126.416,289.919 126.039,290.295 126.039,290.758L126.039,294.758C126.039,295.222 126.416,295.598 126.879,295.598C127.342,295.598 127.719,295.222 127.719,294.758Z" transform="matrix(.73468 0 0 .7146 42.91 -151.201)" fill="#f6db40" class="color000000 svgShape"></path>
    <path d="M127.719,294.758L127.719,290.758C127.719,290.295 127.342,289.919 126.879,289.919C126.416,289.919 126.039,290.295 126.039,290.758L126.039,294.758C126.039,295.222 126.416,295.598 126.879,295.598C127.342,295.598 127.719,295.222 127.719,294.758Z" transform="matrix(.73468 0 0 .7146 64.729 -151.201)" fill="#f6db40" class="color000000 svgShape"></path>
    <path d="M127.719,294.758L127.719,290.758C127.719,290.14 127.342,289.639 126.879,289.639C126.416,289.639 126.039,290.14 126.039,290.758L126.039,294.758C126.039,295.376 126.416,295.878 126.879,295.878C127.342,295.878 127.719,295.376 127.719,294.758Z" transform="matrix(.73468 0 0 .53595 64.729 -124.268)" fill="#f6db40" class="color000000 svgShape"></path>
    <path d="M127.719,294.758L127.719,290.758C127.719,290.14 127.342,289.639 126.879,289.639C126.416,289.639 126.039,290.14 126.039,290.758L126.039,294.758C126.039,295.376 126.416,295.878 126.879,295.878C127.342,295.878 127.719,295.376 127.719,294.758Z" transform="matrix(.73468 0 0 .53595 96.434 -124.268)" fill="#f6db40" class="color000000 svgShape"></path>
    <path d="M127.719,294.758L127.719,290.758C127.719,290.295 127.342,289.919 126.879,289.919C126.416,289.919 126.039,290.295 126.039,290.758L126.039,294.758C126.039,295.222 126.416,295.598 126.879,295.598C127.342,295.598 127.719,295.222 127.719,294.758Z" transform="matrix(.73468 0 0 .7146 48.788 -151.201)" fill="#f6db40" class="color000000 svgShape"></path>
    <path d="M127.719,294.758L127.719,290.758C127.719,290.295 127.342,289.919 126.879,289.919C126.416,289.919 126.039,290.295 126.039,290.758L126.039,294.758C126.039,295.222 126.416,295.598 126.879,295.598C127.342,295.598 127.719,295.222 127.719,294.758Z" transform="matrix(.73468 0 0 .7146 70.606 -151.201)" fill="#f6db40" class="color000000 svgShape"></path>
    <path d="M127.719,294.758L127.719,290.758C127.719,290.14 127.342,289.639 126.879,289.639C126.416,289.639 126.039,290.14 126.039,290.758L126.039,294.758C126.039,295.376 126.416,295.878 126.879,295.878C127.342,295.878 127.719,295.376 127.719,294.758Z" transform="matrix(.73468 0 0 .53595 70.606 -124.268)" fill="#f6db40" class="color000000 svgShape"></path>
    <path d="M127.719,294.758L127.719,290.758C127.719,290.14 127.342,289.639 126.879,289.639C126.416,289.639 126.039,290.14 126.039,290.758L126.039,294.758C126.039,295.376 126.416,295.878 126.879,295.878C127.342,295.878 127.719,295.376 127.719,294.758Z" transform="matrix(.73468 0 0 .53595 102.311 -124.268)" fill="#f6db40" class="color000000 svgShape"></path>
    <path d="M127.719,294.758L127.719,290.758C127.719,290.59 127.342,290.453 126.879,290.453C126.416,290.453 126.039,290.59 126.039,290.758L126.039,294.758C126.039,294.927 126.416,295.063 126.879,295.063C127.342,295.063 127.719,294.927 127.719,294.758Z" transform="matrix(.73468 0 0 1.96515 69.137 -534.103)" fill="#f6db40" class="color000000 svgShape"></path>
    <path d="M127.719,294.758L127.719,290.758C127.719,290.59 127.342,290.453 126.879,290.453C126.416,290.453 126.039,290.59 126.039,290.758L126.039,294.758C126.039,294.927 126.416,295.063 126.879,295.063C127.342,295.063 127.719,294.927 127.719,294.758Z" transform="matrix(.73468 0 0 1.96515 100.842 -534.103)" fill="#f6db40" class="color000000 svgShape"></path>
    <path d="M487.624,483.803C487.624,484.044 487.727,484.272 487.907,484.432C488.087,484.591 488.327,484.666 488.565,484.637C488.709,484.619 488.855,484.61 489.003,484.61C491.191,484.61 492.934,486.555 492.934,488.913C492.934,489.088 492.925,489.261 492.906,489.43C492.728,491.016 493.051,492.619 493.83,494.014C494.337,494.926 494.624,495.996 494.624,497.137C494.624,500.5 492.123,503.261 489.003,503.261C488.846,503.261 488.691,503.254 488.538,503.24C488.304,503.219 488.071,503.298 487.897,503.457C487.723,503.616 487.624,503.841 487.624,504.077L487.624,516.469C487.624,516.933 488,517.309 488.464,517.309L528.464,517.309C528.928,517.309 529.303,516.933 529.303,516.469L529.303,477.469C529.303,477.005 528.928,476.629 528.464,476.629L488.464,476.629C488,476.629 487.624,477.005 487.624,477.469L487.624,483.803ZM489.303,504.934C493.177,504.765 496.303,501.352 496.303,497.137C496.303,495.697 495.938,494.349 495.297,493.197C495.297,493.196 495.296,493.196 495.296,493.195C494.688,492.106 494.436,490.855 494.575,489.615C494.575,489.614 494.575,489.614 494.575,489.613C494.601,489.383 494.614,489.15 494.614,488.913C494.614,485.704 492.245,483.107 489.303,482.94L489.303,478.309C489.303,478.309 527.624,478.309 527.624,478.309C527.624,478.309 527.624,515.629 527.624,515.629C527.624,515.629 489.303,515.629 489.303,515.629L489.303,504.934Z" transform="matrix(.73468 0 0 .7146 -179.749 -290.341)" fill="#f6db40" class="color000000 svgShape"></path>
    <path d="M521.097,380.776L521.097,380.776L519.158,376.379C519.492,375.299 520.235,374.548 521.097,374.548L442.374,374.548C441.198,374.548 440.245,375.942 440.245,377.662L440.245,462.961C440.245,464.681 441.198,466.075 442.374,466.075L523.51,466.075C524.686,466.075 525.639,464.681 525.639,462.961L525.639,409.633C525.639,408.83 525.427,408.057 525.046,407.477C522.381,403.414 520.765,397.695 520.765,391.388C520.765,387.204 521.476,383.28 522.722,379.904L523.026,378.98C523.026,378.98 521.097,380.776 521.097,380.776L521.097,380.776ZM517.794,380.776C516.964,384.06 516.507,387.641 516.507,391.388C516.507,398.915 518.35,405.766 521.382,410.844C521.381,410.842 521.381,459.847 521.381,459.847C521.381,459.847 444.502,459.847 444.502,459.847C444.502,459.847 444.502,380.776 444.502,380.776L517.794,380.776Z" transform="matrix(.28975 0 0 .19268 24.487 -10.478)" fill="#f6db40" class="color000000 svgShape"></path>
    <path d="M1.952,152.981C1.95,152.983 1.949,152.986 1.947,152.988C1.038,154.527 0.514,156.321 0.514,158.237C0.514,163.997 5.238,168.633 10.998,168.633C16.759,168.633 21.482,163.997 21.482,158.237C21.482,156.319 20.957,154.523 20.037,152.987C20.036,152.986 20.036,152.986 20.036,152.985C19.163,151.534 18.801,149.866 19,148.215C19,148.214 19.001,148.213 19.001,148.212C19.037,147.906 19.055,147.595 19.055,147.28C19.055,142.858 15.419,139.309 10.998,139.309C6.577,139.309 2.941,142.858 2.941,147.28C2.941,147.579 2.958,147.875 2.979,148.167C2.981,148.184 2.982,148.2 2.984,148.216C3.184,149.866 2.823,151.532 1.952,152.981ZM4.061,154.065C5.173,152.213 5.634,150.086 5.382,147.979C5.367,147.758 5.352,147.521 5.352,147.28C5.352,144.138 7.856,141.547 10.998,141.547C14.14,141.547 16.644,144.138 16.644,147.28C16.644,147.513 16.63,147.742 16.604,147.968C16.348,150.081 16.812,152.217 17.93,154.076C18.659,155.291 19.071,156.716 19.071,158.237C19.071,162.718 15.479,166.396 10.998,166.396C6.517,166.396 2.926,162.718 2.926,158.237C2.926,156.714 3.339,155.288 4.061,154.065L4.061,154.065Z" transform="matrix(.51162 0 0 .53634 114.318 -19.932)" fill="#f6db40" class="color000000 svgShape"></path>
    <path d="M123.719,308.423L123.719,295.758C123.719,295.295 123.342,294.919 122.879,294.919C122.416,294.919 122.039,295.295 122.039,295.758L122.039,308.423C122.039,308.886 122.416,309.263 122.879,309.263C123.342,309.263 123.719,308.886 123.719,308.423Z" transform="matrix(.73468 0 0 .7146 30.064 -150.486)" fill="#f6db40" class="color000000 svgShape"></path>
    <path d="M204.079,308.258L204.079,297.758C204.079,297.547 203.702,297.375 203.239,297.375C202.776,297.375 202.399,297.547 202.399,297.758L202.399,308.258C202.399,308.47 202.776,308.641 203.239,308.641C203.702,308.641 204.079,308.47 204.079,308.258Z" transform="matrix(.73468 0 0 1.56532 29.8 -403.794)" fill="#f6db40" class="color000000 svgShape"></path>
    <path d="M647.99,237.726C647.99,214.579 646.097,195.814 643.761,195.814L401.954,195.814C399.618,195.814 397.724,214.579 397.724,237.726L397.724,437.4C397.724,460.548 399.618,479.313 401.954,479.313L643.761,479.313C646.097,479.313 647.99,460.548 647.99,437.4L647.99,237.726ZM639.531,279.64L639.531,395.488C639.531,395.487 406.184,395.487 406.184,395.487C406.184,395.487 406.184,279.639 406.184,279.639L639.531,279.64Z" transform="matrix(.14584 0 0 .01432 88.17 22.444)" fill="#f6db40" class="color000000 svgShape"></path>
    <path d="M648.684,237.726C648.684,214.579 646.479,195.814 643.761,195.814L401.954,195.814C399.235,195.814 397.031,214.579 397.031,237.726L397.031,437.4C397.031,460.548 399.235,479.313 401.954,479.313L643.761,479.313C646.479,479.313 648.684,460.548 648.684,437.4L648.684,237.726ZM638.838,279.639L638.838,395.488C638.838,395.487 406.877,395.487 406.877,395.487C406.877,395.487 406.877,279.639 406.877,279.639C406.877,279.639 638.838,279.639 638.838,279.639Z" transform="matrix(.1253 0 0 .01432 131.687 22.444)" fill="#f6db40" class="color000000 svgShape"></path>
    <path d="M166.879,302.598L196.879,302.598C197.342,302.598 197.719,302.222 197.719,301.758C197.719,301.295 197.342,300.919 196.879,300.919L166.879,300.919C166.416,300.919 166.039,301.295 166.039,301.758C166.039,302.222 166.416,302.598 166.879,302.598Z" transform="matrix(.73468 0 0 .7146 30.064 -150.486)" fill="#f6db40" class="color000000 svgShape"></path>
    <path d="M166.879,302.619L196.879,302.619C197.324,302.619 197.686,302.233 197.686,301.758C197.686,301.283 197.324,300.898 196.879,300.898L166.879,300.898C166.434,300.898 166.072,301.283 166.072,301.758C166.072,302.233 166.434,302.619 166.879,302.619Z" transform="matrix(.76477 0 0 .69738 25.043 -142.43)" fill="#f6db40" class="color000000 svgShape"></path>
    <path d="M166.879,302.598L196.879,302.598C197.314,302.598 197.666,302.222 197.666,301.758C197.666,301.295 197.314,300.919 196.879,300.919L166.879,300.919C166.445,300.919 166.092,301.295 166.092,301.758C166.092,302.222 166.445,302.598 166.879,302.598Z" transform="matrix(.78366 0 0 .7146 21.89 -144.769)" fill="#f6db40" class="color000000 svgShape"></path>
    <path d="M166.879,302.598L196.879,302.598C197.314,302.598 197.666,302.222 197.666,301.758C197.666,301.295 197.314,300.919 196.879,300.919L166.879,300.919C166.445,300.919 166.092,301.295 166.092,301.758C166.092,302.222 166.445,302.598 166.879,302.598Z" transform="matrix(.78366 0 0 .7146 21.89 -141.911)" fill="#f6db40" class="color000000 svgShape"></path>
    <path d="M1.952,152.981C1.95,152.983 1.949,152.986 1.947,152.988C1.038,154.527 0.514,156.321 0.514,158.237C0.514,163.997 5.238,168.633 10.998,168.633C16.759,168.633 21.482,163.997 21.482,158.237C21.482,156.319 20.957,154.523 20.037,152.987C20.036,152.986 20.036,152.986 20.036,152.985C19.163,151.534 18.801,149.866 19,148.215C19,148.214 19.001,148.213 19.001,148.212C19.037,147.906 19.055,147.595 19.055,147.28C19.055,142.858 15.419,139.309 10.998,139.309C6.577,139.309 2.941,142.858 2.941,147.28C2.941,147.579 2.958,147.875 2.979,148.167C2.981,148.184 2.982,148.2 2.984,148.216C3.184,149.866 2.823,151.532 1.952,152.981ZM4.061,154.065C5.173,152.213 5.634,150.086 5.382,147.979C5.367,147.758 5.352,147.521 5.352,147.28C5.352,144.138 7.856,141.547 10.998,141.547C14.14,141.547 16.644,144.138 16.644,147.28C16.644,147.513 16.63,147.742 16.604,147.968C16.348,150.081 16.812,152.217 17.93,154.076C18.659,155.291 19.071,156.716 19.071,158.237C19.071,162.718 15.479,166.396 10.998,166.396C6.517,166.396 2.926,162.718 2.926,158.237C2.926,156.714 3.339,155.288 4.061,154.065L4.061,154.065Z" transform="matrix(.51162 0 0 .53634 173.884 -19.956)" fill="#f6db40" class="color000000 svgShape"></path>
    <path d="M638.685,108.824C638.685,111.509 640.957,113.685 643.761,113.685L885.567,113.685C888.37,113.685 890.643,111.509 890.643,108.824L890.643,88.562C890.643,86.895 889.751,85.344 888.28,84.453L768.794,12.086C767.153,11.093 765.065,11.082 763.413,12.059L641.093,84.426C639.596,85.312 638.685,86.877 638.685,88.562L638.685,108.824ZM648.836,103.964L648.836,91.273C648.836,91.273 766.049,21.927 766.049,21.927C766.049,21.927 880.491,91.239 880.491,91.239C880.492,91.239 880.492,103.964 880.492,103.964L648.836,103.964Z" transform="matrix(.12153 0 0 .12343 71.49 12.415)" fill="#f6db40" class="color000000 svgShape"></path>
  </g>
</svg>
